<mxfile host="app.diagrams.net" modified="2024-04-11T21:23:32.365Z" agent="Mozilla/5.0 (Macintosh; Intel Mac OS X 10_15_7) AppleWebKit/537.36 (KHTML, like Gecko) Chrome/123.0.0.0 Safari/537.36" etag="xry9NY7x9Tl1VSb5a7hy" version="24.2.3" type="github">
  <diagram name="Page-1" id="-98pJoUqqj__4yH2-iSp">
    <mxGraphModel dx="1224" dy="700" grid="1" gridSize="10" guides="1" tooltips="1" connect="1" arrows="1" fold="1" page="1" pageScale="1" pageWidth="850" pageHeight="1100" math="0" shadow="0">
      <root>
        <mxCell id="0" />
        <mxCell id="1" parent="0" />
        <mxCell id="me1G7gAer3CvM7mz6-fR-60" value="" style="rounded=0;whiteSpace=wrap;html=1;fillColor=#f8cecc;strokeColor=#b85450;fontStyle=1" parent="1" vertex="1">
          <mxGeometry x="200" y="120" width="480" height="960" as="geometry" />
        </mxCell>
        <mxCell id="4dctXpntgjXw3aF1l8x9-5" value="" style="rounded=0;whiteSpace=wrap;html=1;fontSize=16;fillColor=#d5e8d4;strokeColor=#82b366;fontStyle=1" parent="1" vertex="1">
          <mxGeometry x="430" y="400" width="200" height="160" as="geometry" />
        </mxCell>
        <mxCell id="4dctXpntgjXw3aF1l8x9-3" value="data = 20" style="rounded=0;whiteSpace=wrap;html=1;fontSize=16;fontStyle=1" parent="1" vertex="1">
          <mxGeometry x="470" y="440" width="120" height="40" as="geometry" />
        </mxCell>
        <mxCell id="4dctXpntgjXw3aF1l8x9-6" value="next" style="rounded=0;whiteSpace=wrap;html=1;fontSize=16;fillColor=#dae8fc;strokeColor=#6c8ebf;fontStyle=1" parent="1" vertex="1">
          <mxGeometry x="470" y="480" width="120" height="40" as="geometry" />
        </mxCell>
        <mxCell id="4dctXpntgjXw3aF1l8x9-7" value="" style="endArrow=classic;html=1;rounded=0;entryX=0.605;entryY=-0.012;entryDx=0;entryDy=0;entryPerimeter=0;fontSize=16;fontStyle=1" parent="1" edge="1">
          <mxGeometry width="50" height="50" relative="1" as="geometry">
            <mxPoint x="570" y="501.92" as="sourcePoint" />
            <mxPoint x="571" y="639.9999999999999" as="targetPoint" />
          </mxGeometry>
        </mxCell>
        <mxCell id="4dctXpntgjXw3aF1l8x9-18" value="" style="rounded=0;whiteSpace=wrap;html=1;fontSize=16;fillColor=#d5e8d4;strokeColor=#82b366;fontStyle=1" parent="1" vertex="1">
          <mxGeometry x="430" y="640" width="200" height="160" as="geometry" />
        </mxCell>
        <mxCell id="4dctXpntgjXw3aF1l8x9-19" value="data = 30" style="rounded=0;whiteSpace=wrap;html=1;fontSize=16;fontStyle=1" parent="1" vertex="1">
          <mxGeometry x="470" y="680" width="120" height="40" as="geometry" />
        </mxCell>
        <mxCell id="4dctXpntgjXw3aF1l8x9-20" value="next" style="rounded=0;whiteSpace=wrap;html=1;fontSize=16;fillColor=#dae8fc;strokeColor=#6c8ebf;fontStyle=1" parent="1" vertex="1">
          <mxGeometry x="470" y="720" width="120" height="40" as="geometry" />
        </mxCell>
        <mxCell id="4dctXpntgjXw3aF1l8x9-22" value="" style="rounded=0;whiteSpace=wrap;html=1;fontSize=16;fillColor=#d5e8d4;strokeColor=#82b366;fontStyle=1" parent="1" vertex="1">
          <mxGeometry x="430" y="162" width="200" height="160" as="geometry" />
        </mxCell>
        <mxCell id="4dctXpntgjXw3aF1l8x9-23" value="a" style="rounded=0;whiteSpace=wrap;html=1;fontSize=16;fillColor=#dae8fc;strokeColor=#6c8ebf;fontStyle=1" parent="1" vertex="1">
          <mxGeometry x="270" y="162" width="120" height="40" as="geometry" />
        </mxCell>
        <mxCell id="4dctXpntgjXw3aF1l8x9-24" value="" style="endArrow=classic;html=1;rounded=0;fontSize=16;fontStyle=1" parent="1" edge="1">
          <mxGeometry width="50" height="50" relative="1" as="geometry">
            <mxPoint x="350" y="182" as="sourcePoint" />
            <mxPoint x="430" y="182" as="targetPoint" />
          </mxGeometry>
        </mxCell>
        <mxCell id="4dctXpntgjXw3aF1l8x9-25" value="data = 10" style="rounded=0;whiteSpace=wrap;html=1;fontSize=16;fontStyle=1" parent="1" vertex="1">
          <mxGeometry x="470" y="202" width="120" height="40" as="geometry" />
        </mxCell>
        <mxCell id="4dctXpntgjXw3aF1l8x9-26" value="next" style="rounded=0;whiteSpace=wrap;html=1;fontSize=16;fillColor=#dae8fc;strokeColor=#6c8ebf;fontStyle=1" parent="1" vertex="1">
          <mxGeometry x="470" y="242" width="120" height="40" as="geometry" />
        </mxCell>
        <mxCell id="4dctXpntgjXw3aF1l8x9-27" value="" style="endArrow=classic;html=1;rounded=0;entryX=0.605;entryY=-0.012;entryDx=0;entryDy=0;entryPerimeter=0;fontSize=16;fontStyle=1" parent="1" edge="1">
          <mxGeometry width="50" height="50" relative="1" as="geometry">
            <mxPoint x="570" y="262" as="sourcePoint" />
            <mxPoint x="571" y="400" as="targetPoint" />
          </mxGeometry>
        </mxCell>
        <mxCell id="4dctXpntgjXw3aF1l8x9-29" value="Node reference" style="text;html=1;align=center;verticalAlign=middle;resizable=0;points=[];autosize=1;strokeColor=none;fillColor=none;fontStyle=1" parent="1" vertex="1">
          <mxGeometry x="275" y="202" width="110" height="30" as="geometry" />
        </mxCell>
        <mxCell id="4dctXpntgjXw3aF1l8x9-35" value="Node instance" style="text;html=1;align=center;verticalAlign=middle;resizable=0;points=[];autosize=1;strokeColor=none;fillColor=none;fontStyle=1" parent="1" vertex="1">
          <mxGeometry x="430" y="322" width="100" height="30" as="geometry" />
        </mxCell>
        <mxCell id="4dctXpntgjXw3aF1l8x9-36" value="Node instance" style="text;html=1;align=center;verticalAlign=middle;resizable=0;points=[];autosize=1;strokeColor=none;fillColor=none;fontStyle=1" parent="1" vertex="1">
          <mxGeometry x="430" y="560" width="100" height="30" as="geometry" />
        </mxCell>
        <mxCell id="4dctXpntgjXw3aF1l8x9-37" value="Node instance" style="text;html=1;align=center;verticalAlign=middle;resizable=0;points=[];autosize=1;strokeColor=none;fillColor=none;fontStyle=1" parent="1" vertex="1">
          <mxGeometry x="430" y="800" width="100" height="30" as="geometry" />
        </mxCell>
        <mxCell id="4dctXpntgjXw3aF1l8x9-39" value="Node reference" style="text;html=1;align=center;verticalAlign=middle;resizable=0;points=[];autosize=1;strokeColor=none;fillColor=none;fontStyle=1" parent="1" vertex="1">
          <mxGeometry x="460" y="280" width="110" height="30" as="geometry" />
        </mxCell>
        <mxCell id="4dctXpntgjXw3aF1l8x9-40" value="Node reference" style="text;html=1;align=center;verticalAlign=middle;resizable=0;points=[];autosize=1;strokeColor=none;fillColor=none;fontStyle=1" parent="1" vertex="1">
          <mxGeometry x="460" y="520" width="110" height="30" as="geometry" />
        </mxCell>
        <mxCell id="4dctXpntgjXw3aF1l8x9-41" value="Node reference" style="text;html=1;align=center;verticalAlign=middle;resizable=0;points=[];autosize=1;strokeColor=none;fillColor=none;fontStyle=1" parent="1" vertex="1">
          <mxGeometry x="460" y="760" width="110" height="30" as="geometry" />
        </mxCell>
        <mxCell id="me1G7gAer3CvM7mz6-fR-1" value="" style="endArrow=classic;html=1;rounded=0;entryX=0.605;entryY=-0.012;entryDx=0;entryDy=0;entryPerimeter=0;fontSize=16;fontStyle=1" parent="1" edge="1">
          <mxGeometry width="50" height="50" relative="1" as="geometry">
            <mxPoint x="574" y="740" as="sourcePoint" />
            <mxPoint x="575" y="878.0799999999999" as="targetPoint" />
          </mxGeometry>
        </mxCell>
        <mxCell id="me1G7gAer3CvM7mz6-fR-5" value="" style="rounded=0;whiteSpace=wrap;html=1;fontSize=16;fillColor=#d5e8d4;strokeColor=#82b366;fontStyle=1" parent="1" vertex="1">
          <mxGeometry x="430" y="880" width="200" height="160" as="geometry" />
        </mxCell>
        <mxCell id="me1G7gAer3CvM7mz6-fR-6" value="data = 40" style="rounded=0;whiteSpace=wrap;html=1;fontSize=16;fontStyle=1" parent="1" vertex="1">
          <mxGeometry x="470" y="920" width="120" height="40" as="geometry" />
        </mxCell>
        <mxCell id="me1G7gAer3CvM7mz6-fR-7" value="next = null" style="rounded=0;whiteSpace=wrap;html=1;fontSize=16;fillColor=#dae8fc;strokeColor=#6c8ebf;fontStyle=1" parent="1" vertex="1">
          <mxGeometry x="470" y="960" width="120" height="40" as="geometry" />
        </mxCell>
        <mxCell id="me1G7gAer3CvM7mz6-fR-9" value="Node instance" style="text;html=1;align=center;verticalAlign=middle;resizable=0;points=[];autosize=1;strokeColor=none;fillColor=none;fontStyle=1" parent="1" vertex="1">
          <mxGeometry x="430" y="1040" width="100" height="30" as="geometry" />
        </mxCell>
        <mxCell id="me1G7gAer3CvM7mz6-fR-10" value="Node reference" style="text;html=1;align=center;verticalAlign=middle;resizable=0;points=[];autosize=1;strokeColor=none;fillColor=none;fontStyle=1" parent="1" vertex="1">
          <mxGeometry x="460" y="1000" width="110" height="30" as="geometry" />
        </mxCell>
      </root>
    </mxGraphModel>
  </diagram>
</mxfile>
